<svg width="50" height="50" viewBox="0 0 50 50" fill="none" xmlns="http://www.w3.org/2000/svg">
<rect width="50" height="50" fill="white" fill-opacity="0.01"/>
<path d="M33.5845 24.7142C33.5586 24.8509 33.4975 24.9875 33.3916 25.1124C33.2929 25.2373 33.1423 25.3621 32.9471 25.4776C32.7543 25.5977 32.5756 25.6778 32.4203 25.7085C32.2651 25.7438 32.1169 25.7367 31.9829 25.6943C31.8535 25.6496 31.7289 25.5695 31.616 25.454C31.4984 25.3409 31.3832 25.1925 31.275 25.0087C31.1668 24.8367 31.0939 24.6671 31.0516 24.5163C31.0069 24.3632 30.9975 24.2218 31.0304 24.0851C31.0563 23.9485 31.1221 23.8166 31.2256 23.6988C31.3291 23.5739 31.4796 23.449 31.6701 23.3336C31.8582 23.2158 32.0323 23.1427 32.1875 23.1074C32.3427 23.072 32.4862 23.0744 32.6155 23.1097C32.7449 23.1498 32.8719 23.2252 32.9801 23.3336C33.093 23.4419 33.2082 23.5857 33.3117 23.7577C33.4246 23.9391 33.5022 24.1087 33.5469 24.2666C33.601 24.4244 33.608 24.5729 33.5845 24.7142Z" fill="#1A1212"/>
<path d="M39.9964 22.3421C38.4254 19.5761 35.5726 17.63 32.7292 17.3803C32.2941 17.3426 31.8708 17.3449 31.4545 17.3873L31.685 16.5533C32.5928 13.21 30.6172 9.73251 27.2753 8.81365C26.9154 8.71234 26.5509 8.65109 26.1793 8.6181C23.1454 8.35187 20.3561 10.2933 19.5494 13.236L18.9168 15.5732C18.4558 15.4436 17.715 15.241 16.5555 14.9417C16.0264 14.8074 15.516 14.7179 15.0339 14.6755C11.9506 14.4046 9.8222 16.0185 8.87676 19.3381C8.37817 21.1052 8.54045 22.8557 9.34713 24.2576C10.1421 25.65 11.5085 26.6277 13.2888 27.0848L14.7611 27.4901C13.8392 29.25 13.4652 31.2739 13.7075 33.2318L12.628 37.2064C12.555 37.4774 12.5903 37.7601 12.7314 38.0051C12.8725 38.2454 13.0983 38.4221 13.3688 38.4952L17.3081 39.546C18.778 40.6863 20.5349 41.3719 22.3975 41.5368C24.3425 41.7065 26.264 41.2894 27.9526 40.3235L36.4216 35.4724C38.8181 34.1294 40.4315 32.1692 41.0924 29.8013C41.7509 27.3935 41.3675 24.7453 39.9964 22.3421ZM23.2207 14.2443C23.5852 12.8849 25.0457 12.0556 26.4027 12.4231C26.485 12.4443 26.5603 12.4655 26.6379 12.4985C26.6849 12.5127 26.7296 12.5315 26.7767 12.5503C26.819 12.5645 26.8566 12.581 26.8943 12.6045C26.946 12.6281 26.993 12.6517 27.0401 12.6823C27.1106 12.7223 27.1812 12.7647 27.2447 12.8142C27.3294 12.8708 27.407 12.932 27.4799 13.0027C27.5387 13.0569 27.5928 13.1111 27.6468 13.17C27.6751 13.1959 27.6962 13.2242 27.7174 13.2548C27.8209 13.3773 27.9126 13.5093 27.9926 13.653C28.0184 13.7001 28.0396 13.7449 28.0584 13.792C28.1431 13.9616 28.2042 14.1454 28.2419 14.3362C28.2583 14.3763 28.263 14.4211 28.2701 14.4658C28.2842 14.5318 28.2936 14.5954 28.2983 14.6614C28.3148 14.8169 28.3101 14.9677 28.303 15.1255C28.2842 15.2716 28.263 15.4224 28.2207 15.5708L27.4446 18.4805C27.4234 18.5583 27.3458 18.6054 27.2682 18.5842L22.5245 17.2719C22.4516 17.2507 22.4046 17.1729 22.4257 17.0999L23.2207 14.2443ZM14.286 23.546C13.905 23.4447 13.5687 23.2515 13.2888 23.0041C13.1736 22.9052 13.0654 22.7968 12.9784 22.6814C12.5339 22.13 12.3105 21.4091 12.4045 20.6929C12.4186 20.5963 12.4375 20.4926 12.4657 20.3984C12.8396 19.0413 13.6722 18.0376 15.6477 18.5818L24.2367 20.9238C24.3566 20.9544 24.3825 21.1193 24.2743 21.1782C23.2207 21.7908 19.6341 23.8641 18.6628 24.4296C18.43 24.5615 18.1501 24.6015 17.8914 24.5285L14.286 23.546ZM24.2484 37.7059C24.0697 37.7695 23.7781 37.852 23.5687 37.8685C21.4098 38.0004 19.2414 36.9166 18.1101 34.9187C17.4728 33.8066 17.2493 32.5556 17.3881 31.354C17.5292 30.183 18.016 29.0615 18.8039 28.1686C18.8698 28.0956 18.9921 28.1121 19.0391 28.1945L24.326 37.5056C24.3731 37.5834 24.3354 37.68 24.2484 37.7059ZM30.4926 34.6077L28.1384 35.9601C28.0702 35.9978 27.9855 35.9718 27.9455 35.9035L22.2776 25.9869C22.24 25.9186 22.2611 25.8385 22.3293 25.7937L24.6882 24.3871C24.7564 24.3494 24.8482 24.3707 24.8858 24.439L30.5467 34.4145C30.5867 34.4828 30.5584 34.57 30.4926 34.6077ZM37.5622 28.1121C37.2777 29.7778 36.2687 31.3092 34.6836 32.2187C34.5425 32.3011 34.2555 32.4472 34.0956 32.532C34.0298 32.565 33.9474 32.5438 33.9075 32.4802C33.8134 32.3247 33.6441 32.0467 33.5688 31.9124L28.55 23.0937C28.4935 22.9947 28.3453 22.7261 28.2654 22.5753C28.2325 22.5141 28.2489 22.4363 28.3054 22.3963C28.4418 22.295 28.6887 22.1183 28.851 22.024C31.6803 20.4078 35.2574 21.3879 36.8661 24.2199C37.5693 25.4544 37.7786 26.8233 37.5622 28.1121Z" fill="#1A1212"/>
<path d="M28.3052 15.1226C28.2864 15.2687 28.2652 15.4195 28.2229 15.5679L27.4468 18.4776C27.4256 18.5554 27.348 18.6025 27.2704 18.5813L22.5267 17.269C22.4538 17.2478 22.4068 17.17 22.4279 17.097L23.2229 14.2415C23.5874 12.882 25.0479 12.0527 26.4049 12.4202C26.4872 12.4414 26.5625 12.4627 26.6401 12.4956C26.6871 12.5098 26.7318 12.5286 26.7789 12.5475C26.8212 12.5616 26.8588 12.5781 26.8965 12.6017C26.9482 12.6252 26.9952 12.6488 27.0423 12.6794C27.1128 12.7195 27.1834 12.7619 27.2469 12.8113C27.3316 12.8679 27.4092 12.9291 27.4821 12.9998C27.5409 13.054 27.595 13.1082 27.6491 13.1671C27.6773 13.193 27.6984 13.2213 27.7196 13.2519C27.8231 13.3744 27.9148 13.5064 27.9948 13.6501C28.0206 13.6972 28.0418 13.742 28.0606 13.7891C28.1453 13.9587 28.2064 14.1425 28.2441 14.3334C28.2605 14.3734 28.2652 14.4182 28.2723 14.4629C28.2864 14.5289 28.2958 14.5925 28.3005 14.6585C28.317 14.8116 28.3123 14.9648 28.3052 15.1226Z" fill="white"/>
<path d="M24.2691 21.1759C23.2155 21.7884 19.6289 23.8617 18.6576 24.4272C18.4248 24.5591 18.1449 24.5992 17.8862 24.5262L14.2855 23.5437C13.9045 23.4424 13.5682 23.2492 13.2883 23.0018C13.1731 22.9028 13.0649 22.7945 12.9779 22.679C12.5334 22.1277 12.31 21.4067 12.404 20.6905C12.4182 20.5939 12.437 20.4902 12.4652 20.396C12.8391 19.0389 13.6717 18.0352 15.6472 18.5795L24.2362 20.9214C24.3538 20.952 24.3796 21.117 24.2691 21.1759Z" fill="white"/>
<path d="M24.2485 37.7058C24.0697 37.7694 23.7781 37.8519 23.5688 37.8684C21.4098 38.0003 19.2414 36.9165 18.1102 34.9186C17.4728 33.8065 17.2494 32.5555 17.3881 31.3539C17.5293 30.1829 18.0161 29.0614 18.804 28.1685C18.8698 28.0955 18.9921 28.112 19.0391 28.1944L24.3261 37.5055C24.3731 37.5833 24.3355 37.6799 24.2485 37.7058Z" fill="#FFC000"/>
<path d="M30.4923 34.6082L28.1381 35.9606C28.0699 35.9983 27.9852 35.9723 27.9452 35.904L22.2773 25.9874C22.2396 25.9191 22.2608 25.839 22.329 25.7942L24.6879 24.3876C24.7561 24.3499 24.8478 24.3711 24.8855 24.4395L30.5463 34.415C30.5863 34.4833 30.5581 34.5705 30.4923 34.6082Z" fill="#FFC000"/>
<path d="M36.8637 24.2221C35.255 21.3878 31.6779 20.41 28.8486 22.0263C28.6887 22.1205 28.4417 22.2972 28.303 22.3985C28.2465 22.4386 28.2277 22.5163 28.263 22.5776C28.343 22.7284 28.4911 22.997 28.5476 23.0959L33.5664 31.9146C33.644 32.0489 33.811 32.3246 33.9051 32.4824C33.9451 32.546 34.025 32.5672 34.0932 32.5343C34.2532 32.4494 34.5424 32.3034 34.6812 32.2209C36.2663 31.3091 37.2776 29.78 37.5599 28.1143C37.7786 26.8232 37.5693 25.4543 36.8637 24.2221ZM33.3947 25.1127C33.296 25.2376 33.1454 25.3624 32.9502 25.4779C32.7574 25.598 32.5786 25.6782 32.4234 25.7088C32.2682 25.7441 32.12 25.7371 31.986 25.6946C31.8566 25.6499 31.732 25.5698 31.6191 25.4543C31.5015 25.3412 31.3863 25.1928 31.2781 25.009C31.1699 24.837 31.097 24.6674 31.0546 24.5166C31.01 24.3635 31.0005 24.2221 31.0335 24.0855C31.0593 23.9488 31.1252 23.8169 31.2287 23.6991C31.3322 23.5742 31.4827 23.4493 31.6732 23.3339C31.8613 23.2161 32.0354 23.143 32.1906 23.1077C32.3458 23.0724 32.4893 23.0747 32.6186 23.1101C32.748 23.1501 32.875 23.2255 32.9832 23.3339C33.096 23.4423 33.2113 23.586 33.3148 23.758C33.4277 23.9394 33.5053 24.109 33.55 24.2669C33.5993 24.4247 33.6064 24.5732 33.5852 24.7145C33.5594 24.8512 33.4982 24.9878 33.3947 25.1127Z" fill="#FFC000"/>
</svg>
